<mxfile host="app.diagrams.net" modified="2024-06-19T15:30:02.223Z" agent="Mozilla/5.0 (Windows NT 10.0; Win64; x64) AppleWebKit/537.36 (KHTML, like Gecko) Chrome/126.0.0.0 Safari/537.36" version="24.5.5" etag="eHibrawczO8YgV4f-wQ9" type="github">
  <diagram name="Page-1" id="z7RSy7Xw2mpS3Odfz-RW">
    <mxGraphModel>
      <root>
        <mxCell id="0" />
        <mxCell id="1" parent="0" />
      </root>
    </mxGraphModel>
  </diagram>
</mxfile>
